<svg width="271" height="80" viewBox="0 0 271 80" fill="none" xmlns="http://www.w3.org/2000/svg">
  <g clip-path="url(#clip0_406_1545)">
    <path
      d="M249.001 0.00026H21.5567C20.7277 0.00026 19.9085 0.00026 19.0817 0.00426C18.3895 0.00826 17.7029 0.01988 17.004 0.02966C15.4859 0.0454636 13.9713 0.163613 12.4735 0.38308C10.9777 0.607325 9.52885 1.03009 8.17582 1.63708C6.82445 2.2492 5.58966 3.0446 4.51626 3.9944C3.43721 4.94153 2.53775 6.03629 1.85245 7.23658C1.16526 8.43448 0.688754 9.71814 0.439401 11.0432C0.187677 12.3666 0.0522225 13.7053 0.0342522 15.0472C0.0132713 15.6604 0.0110557 16.2757 0 16.8889V63.1175C0.0110557 63.7385 0.0132713 64.3401 0.0342522 64.9613C0.0522281 66.3031 0.187683 67.6417 0.439401 68.9651C0.688065 70.2909 1.16459 71.5753 1.85245 72.7737C2.53744 73.9701 3.43703 75.0604 4.51626 76.0023C5.58559 76.9563 6.82118 77.7522 8.17582 78.3597C9.52884 78.9683 10.9776 79.3936 12.4735 79.6213C13.9716 79.839 15.486 79.9572 17.004 79.9749C17.7029 79.9885 18.3895 79.9963 19.0817 79.9963C19.9085 80.0003 20.7277 80.0003 21.5567 80.0003H249.001C249.813 80.0003 250.639 80.0003 251.452 79.9963C252.141 79.9963 252.847 79.9885 253.536 79.9749C255.051 79.9581 256.563 79.8399 258.058 79.6213C259.558 79.392 261.012 78.9668 262.372 78.3597C263.725 77.7519 264.96 76.956 266.028 76.0023C267.105 75.0567 268.006 73.9672 268.7 72.7737C269.382 71.5744 269.854 70.2901 270.099 68.9651C270.351 67.6415 270.492 66.3032 270.519 64.9613C270.528 64.3401 270.528 63.7385 270.528 63.1175C270.545 62.3909 270.545 61.6683 270.545 60.9299V19.0725C270.545 18.3401 270.545 17.6135 270.528 16.8889C270.528 16.2757 270.528 15.6604 270.519 15.0471C270.492 13.7051 270.351 12.3667 270.099 11.0431C269.854 9.71882 269.382 8.43527 268.7 7.2365C267.304 4.83065 265.091 2.87231 262.372 1.6369C261.012 1.03139 259.558 0.608741 258.058 0.3829C256.563 0.162466 255.051 0.0442755 253.536 0.02938C252.847 0.01962 252.141 0.0079 251.452 0.004C250.639 0 249.813 0.00026 249.001 0.00026Z"
      fill="#A6A6A6" />
    <path
      d="M19.0928 78.25C18.404 78.25 17.7318 78.2422 17.0483 78.2286C15.6325 78.2123 14.22 78.1032 12.8224 77.9024C11.5192 77.7039 10.2568 77.3345 9.07675 76.8066C7.90752 76.283 6.84109 75.5965 5.91831 74.7734C4.98218 73.9599 4.2028 73.0165 3.61107 71.9804C3.01282 70.9376 2.59879 69.8198 2.38341 68.666C2.15082 67.4262 2.02498 66.1726 2.00698 64.916C1.99264 64.4942 1.97388 63.0898 1.97388 63.0898V16.8887C1.97388 16.8887 1.99386 15.5059 2.00709 15.0996C2.02433 13.845 2.14944 12.5933 2.38133 11.3555C2.59711 10.1985 3.01145 9.0775 3.61003 8.03126C4.19958 6.99589 4.97463 6.05172 5.90513 5.23536C6.83458 4.41124 7.90443 3.72121 9.07565 3.19042C10.253 2.66419 11.513 2.29747 12.8136 2.10254C14.2158 1.89967 15.6332 1.78999 17.0539 1.77442L19.0939 1.75H251.441L253.505 1.7754C254.913 1.7902 256.317 1.8989 257.707 2.10058C259.02 2.29795 260.294 2.66723 261.484 3.19628C263.831 4.26597 265.74 5.95833 266.944 8.03614C267.533 9.07516 267.941 10.187 268.154 11.334C268.389 12.582 268.52 13.8435 268.547 15.1084C268.554 15.6748 268.554 16.2832 268.554 16.8887C268.572 17.6387 268.572 18.3525 268.572 19.0723V60.9296C268.572 61.6562 268.572 62.3652 268.554 63.08C268.554 63.7304 268.554 64.3262 268.545 64.9394C268.519 66.1818 268.39 67.4207 268.159 68.6464C267.948 69.8085 267.536 70.935 266.938 71.9864C266.342 73.0112 265.567 73.9465 264.642 74.7578C263.718 75.5854 262.65 76.2759 261.478 76.8028C260.29 77.3348 259.019 77.7055 257.707 77.9024C256.309 78.1043 254.897 78.2134 253.481 78.2286C252.819 78.2422 252.125 78.25 251.452 78.25L249.001 78.254L19.0928 78.25Z"
      fill="black" />
    <path
      d="M55.9995 40.6011C56.0239 38.9318 56.5251 37.2951 57.4566 35.8432C58.3882 34.3913 59.7197 33.1714 61.3274 32.297C60.3061 31.0067 58.9587 29.9448 57.3924 29.1957C55.826 28.4466 54.0837 28.0309 52.3039 27.9817C48.5074 27.6291 44.8268 29.9913 42.8921 29.9913C40.92 29.9913 37.9413 28.0167 34.7338 28.075C32.659 28.1343 30.637 28.6681 28.8648 29.6242C27.0925 30.5803 25.6305 31.9262 24.621 33.5308C20.2485 40.2276 23.51 50.0697 27.6985 55.4829C29.7942 58.1336 32.2433 61.0945 35.448 60.9895C38.584 60.8745 39.7552 59.2206 43.5406 59.2206C47.2908 59.2206 48.3897 60.9895 51.6594 60.9228C55.0244 60.8745 57.1445 58.2603 59.1666 55.5845C60.6723 53.6958 61.8309 51.6083 62.5996 49.3995C60.6446 48.668 58.9762 47.4437 57.8026 45.8791C56.6289 44.3145 56.0018 42.4789 55.9995 40.6011Z"
      fill="white" />
    <path
      d="M49.8237 24.4217C51.6585 22.4733 52.5624 19.9689 52.3435 17.4404C49.5404 17.7009 46.9511 18.886 45.0916 20.7596C44.1824 21.675 43.486 22.7399 43.0423 23.8934C42.5986 25.0469 42.4163 26.2665 42.5058 27.4824C43.9078 27.4952 45.2949 27.2264 46.5625 26.6962C47.8301 26.166 48.9451 25.3883 49.8237 24.4217Z"
      fill="white" />
    <path
      d="M95.6408 54.2794H84.9392L82.3692 60.9923H77.8364L87.9728 36.1562H92.6822L102.819 60.9923H98.2086L95.6408 54.2794ZM86.0475 51.1817H94.5303L90.3486 40.2872H90.2316L86.0475 51.1817Z"
      fill="white" />
    <path
      d="M124.71 51.9394C124.71 57.5664 121.305 61.1816 116.167 61.1816C114.866 61.2418 113.572 60.9766 112.433 60.4163C111.294 59.856 110.356 59.0233 109.727 58.0136H109.63V66.9823H105.428V42.8847H109.495V45.8964H109.572C110.23 44.8915 111.184 44.0631 112.331 43.4994C113.479 42.9357 114.778 42.6578 116.09 42.6952C121.285 42.6953 124.71 46.3281 124.71 51.9394ZM120.391 51.9394C120.391 48.2734 118.249 45.8632 114.982 45.8632C111.772 45.8632 109.612 48.3242 109.612 51.9394C109.612 55.5878 111.772 58.0312 114.982 58.0312C118.249 58.0312 120.391 55.6386 120.391 51.9394Z"
      fill="white" />
    <path
      d="M147.239 51.9394C147.239 57.5663 143.834 61.1816 138.697 61.1816C137.395 61.2418 136.101 60.9766 134.962 60.4163C133.823 59.856 132.885 59.0233 132.256 58.0136H132.159V66.9823H127.958V42.8847H132.024V45.8964H132.102C132.76 44.8915 133.713 44.0631 134.861 43.4994C136.008 42.9357 137.307 42.6578 138.619 42.6952C143.815 42.6952 147.239 46.328 147.239 51.9394ZM142.92 51.9394C142.92 48.2734 140.779 45.8632 137.511 45.8632C134.301 45.8632 132.142 48.3241 132.142 51.9394C132.142 55.5878 134.301 58.0312 137.511 58.0312C140.779 58.0312 142.92 55.6386 142.92 51.9394Z"
      fill="white" />
    <path
      d="M162.129 54.0724C162.44 56.5353 165.145 58.1524 168.841 58.1524C172.383 58.1524 174.93 56.5352 174.93 54.3145C174.93 52.3867 173.394 51.2325 169.755 50.4414L166.117 49.666C160.961 48.5645 158.568 46.4316 158.568 42.9707C158.568 38.6855 162.789 35.7422 168.784 35.7422C174.716 35.7422 178.783 38.6855 178.92 42.9707H174.679C174.425 40.4922 172.109 38.9961 168.724 38.9961C165.339 38.9961 163.023 40.5098 163.023 42.7129C163.023 44.4688 164.503 45.502 168.121 46.2929L171.215 46.9648C176.975 48.1699 179.368 50.2168 179.368 53.8495C179.368 58.496 175.184 61.4062 168.53 61.4062C162.303 61.4062 158.1 58.5644 157.828 54.0722L162.129 54.0724Z"
      fill="white" />
    <path
      d="M188.436 38.5996V42.8848H192.328V45.8281H188.436V55.8105C188.436 57.3613 189.215 58.084 190.926 58.084C191.389 58.0769 191.85 58.0482 192.309 57.998V60.9238C191.539 61.0509 190.757 61.1085 189.975 61.0956C185.831 61.0956 184.214 59.7187 184.214 56.207V45.8281H181.238V42.8848H184.214V38.5996H188.436Z"
      fill="white" />
    <path
      d="M194.583 51.9394C194.583 46.2422 198.376 42.6621 204.291 42.6621C210.225 42.6621 214.001 46.2421 214.001 51.9394C214.001 57.6523 210.245 61.2168 204.291 61.2168C198.338 61.2168 194.583 57.6523 194.583 51.9394ZM209.72 51.9394C209.72 48.0312 207.695 45.7246 204.291 45.7246C200.886 45.7246 198.864 48.0488 198.864 51.9394C198.864 55.8633 200.886 58.1523 204.291 58.1523C207.695 58.1523 209.72 55.8633 209.72 51.9394Z"
      fill="white" />
    <path
      d="M217.465 42.885H221.473V45.967H221.57C221.841 45.0044 222.478 44.1538 223.375 43.558C224.272 42.9622 225.373 42.6577 226.493 42.6955C226.978 42.694 227.461 42.7406 227.933 42.8342V46.3108C227.322 46.1455 226.684 46.0697 226.045 46.0862C225.435 46.0643 224.826 46.1595 224.261 46.3652C223.697 46.571 223.189 46.8825 222.773 47.2783C222.357 47.674 222.043 48.1448 221.852 48.6581C221.661 49.1714 221.598 49.7152 221.667 50.2522V60.9924H217.465L217.465 42.885Z"
      fill="white" />
    <path
      d="M247.305 55.6738C246.74 58.9609 243.121 61.2168 238.491 61.2168C232.536 61.2168 228.84 57.6875 228.84 52.0254C228.84 46.3457 232.556 42.6621 238.314 42.6621C243.978 42.6621 247.539 46.1035 247.539 51.5937V52.8672H233.082V53.0918C233.015 53.7582 233.109 54.4295 233.358 55.0612C233.607 55.6929 234.006 56.2704 234.526 56.7555C235.047 57.2406 235.679 57.6222 236.379 57.8748C237.079 58.1274 237.832 58.2453 238.588 58.2207C239.581 58.303 240.577 58.0996 241.429 57.6407C242.281 57.1818 242.942 56.492 243.315 55.6738L247.305 55.6738ZM233.102 50.2695H243.335C243.373 49.6703 243.27 49.0707 243.033 48.5083C242.797 47.9459 242.431 47.4328 241.96 47.0013C241.488 46.5697 240.921 46.2291 240.294 46.0006C239.667 45.7722 238.993 45.6609 238.314 45.6738C237.63 45.6702 236.952 45.7865 236.319 46.016C235.686 46.2455 235.11 46.5836 234.625 47.0109C234.141 47.4381 233.757 47.9461 233.495 48.5054C233.234 49.0647 233.1 49.6643 233.102 50.2695Z"
      fill="white" />
    <path
      d="M85.5203 17.4618C86.4011 17.4059 87.285 17.5236 88.1083 17.8065C88.9315 18.0893 89.6735 18.5303 90.2807 19.0975C90.8879 19.6648 91.3453 20.3442 91.6198 21.0867C91.8942 21.8293 91.979 22.6164 91.8679 23.3915C91.8679 27.204 89.5386 29.3955 85.5203 29.3955H80.6475V17.4618H85.5203ZM82.7427 27.7078H85.2862C85.9157 27.7411 86.5456 27.6498 87.1301 27.4405C87.7146 27.2313 88.239 26.9094 88.6652 26.4983C89.0914 26.0872 89.4085 25.5971 89.5936 25.0639C89.7787 24.5307 89.827 23.9676 89.7351 23.4158C89.8203 22.8661 89.7671 22.3066 89.5792 21.7772C89.3913 21.2479 89.0733 20.7619 88.6481 20.3541C88.2229 19.9462 87.701 19.6266 87.1198 19.4181C86.5386 19.2096 85.9124 19.1175 85.2862 19.1482H82.7427V27.7078Z"
      fill="white" />
    <path
      d="M94.2349 24.8886C94.1709 24.2967 94.2474 23.6996 94.4596 23.1355C94.6717 22.5713 95.0148 22.0526 95.4669 21.6127C95.9189 21.1727 96.4699 20.8212 97.0845 20.5806C97.6992 20.3401 98.3638 20.2158 99.0359 20.2158C99.708 20.2158 100.373 20.3401 100.987 20.5806C101.602 20.8212 102.153 21.1727 102.605 21.6127C103.057 22.0526 103.4 22.5713 103.612 23.1355C103.824 23.6996 103.901 24.2967 103.837 24.8886C103.902 25.481 103.827 26.079 103.615 26.644C103.403 27.2091 103.06 27.7287 102.608 28.1695C102.156 28.6104 101.605 28.9626 100.989 29.2037C100.374 29.4448 99.7088 29.5693 99.0359 29.5693C98.363 29.5693 97.6976 29.4448 97.0823 29.2037C96.4671 28.9626 95.9157 28.6104 95.4635 28.1695C95.0114 27.7287 94.6685 27.2091 94.4569 26.644C94.2453 26.079 94.1697 25.481 94.2349 24.8886ZM101.77 24.8886C101.77 22.9364 100.779 21.7948 99.0392 21.7948C97.2928 21.7948 96.3104 22.9364 96.3104 24.8886C96.3104 26.8564 97.2929 27.9892 99.0392 27.9892C100.779 27.9892 101.77 26.8485 101.77 24.8886Z"
      fill="white" />
    <path
      d="M116.601 29.3955H114.517L112.412 22.7627H112.253L110.158 29.3955H108.094L105.288 20.3896H107.325L109.149 27.2616H109.299L111.392 20.3896H113.32L115.413 27.2616H115.572L117.387 20.3896H119.396L116.601 29.3955Z"
      fill="white" />
    <path
      d="M121.756 20.3897H123.69V21.8204H123.84C124.095 21.3066 124.525 20.8758 125.069 20.5882C125.614 20.3006 126.246 20.1704 126.878 20.2159C127.374 20.183 127.871 20.249 128.334 20.4092C128.796 20.5694 129.212 20.8196 129.551 21.1413C129.889 21.463 130.141 21.8479 130.289 22.2676C130.436 22.6872 130.475 23.1308 130.402 23.5655V29.3955H128.393V24.0118C128.393 22.5646 127.682 21.8448 126.196 21.8448C125.86 21.831 125.524 21.8816 125.212 21.9933C124.9 22.1049 124.619 22.275 124.388 22.4917C124.157 22.7085 123.982 22.9669 123.874 23.2491C123.767 23.5314 123.73 23.8309 123.765 24.127V29.3956H121.756L121.756 20.3897Z"
      fill="white" />
    <path d="M133.604 16.874H135.613V29.3955H133.604V16.874Z" fill="white" />
    <path
      d="M138.406 24.8887C138.342 24.2969 138.418 23.6997 138.631 23.1355C138.843 22.5714 139.186 22.0527 139.638 21.6127C140.09 21.1727 140.641 20.8212 141.256 20.5806C141.87 20.3401 142.535 20.2158 143.207 20.2158C143.879 20.2158 144.544 20.3401 145.159 20.5806C145.773 20.8212 146.325 21.1727 146.777 21.6127C147.229 22.0527 147.572 22.5714 147.784 23.1355C147.996 23.6997 148.073 24.2969 148.009 24.8887C148.074 25.4812 147.998 26.0792 147.787 26.6442C147.575 27.2093 147.232 27.7289 146.78 28.1697C146.328 28.6105 145.776 28.9628 145.161 29.2038C144.546 29.4449 143.88 29.5694 143.207 29.5694C142.534 29.5694 141.869 29.4449 141.254 29.2038C140.638 28.9628 140.087 28.6105 139.635 28.1697C139.183 27.7289 138.84 27.2093 138.628 26.6442C138.416 26.0792 138.341 25.4812 138.406 24.8887ZM145.941 24.8887C145.941 22.9366 144.95 21.795 143.21 21.795C141.464 21.795 140.481 22.9366 140.481 24.8888C140.481 26.8565 141.464 27.9893 143.21 27.9893C144.95 27.9893 145.941 26.8487 145.941 24.8887Z"
      fill="white" />
    <path
      d="M150.124 26.8486C150.124 25.2275 151.488 24.293 153.911 24.1601L156.668 24.0195V23.2422C156.668 22.291 155.957 21.7539 154.584 21.7539C153.462 21.7539 152.685 22.1182 152.462 22.7549H150.517C150.722 21.208 152.367 20.2158 154.677 20.2158C157.229 20.2158 158.669 21.3398 158.669 23.2422V29.3955H156.734V28.1299H156.575C156.253 28.5839 155.8 28.954 155.262 29.2024C154.725 29.4508 154.123 29.5686 153.518 29.5439C153.09 29.5832 152.658 29.5429 152.25 29.4255C151.841 29.3081 151.465 29.1162 151.145 28.8623C150.825 28.6083 150.569 28.298 150.393 27.9511C150.217 27.6043 150.126 27.2287 150.124 26.8486ZM156.668 26.0791V25.3262L154.182 25.4668C152.78 25.5498 152.144 25.9717 152.144 26.7656C152.144 27.5761 152.939 28.0478 154.032 28.0478C154.352 28.0765 154.676 28.0479 154.983 27.9637C155.291 27.8795 155.576 27.7415 155.822 27.5578C156.068 27.3741 156.27 27.1486 156.415 26.8945C156.56 26.6405 156.646 26.3632 156.668 26.0791Z"
      fill="white" />
    <path
      d="M161.309 24.8887C161.309 22.043 162.963 20.2403 165.535 20.2403C166.171 20.2143 166.803 20.3491 167.356 20.6289C167.909 20.9087 168.36 21.3219 168.657 21.8203H168.807V16.874H170.816V29.3955H168.891V27.9726H168.732C168.412 28.4676 167.945 28.8757 167.381 29.1527C166.818 29.4296 166.179 29.5649 165.535 29.5439C162.945 29.544 161.309 27.7412 161.309 24.8887ZM163.385 24.8887C163.385 26.7989 164.403 27.9483 166.105 27.9483C167.798 27.9483 168.845 26.7823 168.845 24.8965C168.845 23.0196 167.787 21.8369 166.105 21.8369C164.414 21.8369 163.385 22.9942 163.385 24.8887Z"
      fill="white" />
    <path
      d="M179.129 24.8886C179.065 24.2967 179.142 23.6996 179.354 23.1355C179.566 22.5713 179.909 22.0526 180.361 21.6127C180.813 21.1727 181.364 20.8212 181.979 20.5806C182.593 20.3401 183.258 20.2158 183.93 20.2158C184.602 20.2158 185.267 20.3401 185.882 20.5806C186.496 20.8212 187.047 21.1727 187.499 21.6127C187.951 22.0526 188.294 22.5713 188.507 23.1355C188.719 23.6996 188.795 24.2967 188.731 24.8886C188.796 25.481 188.721 26.079 188.509 26.644C188.298 27.2091 187.955 27.7287 187.503 28.1695C187.05 28.6104 186.499 28.9626 185.884 29.2037C185.269 29.4448 184.603 29.5693 183.93 29.5693C183.257 29.5693 182.592 29.4448 181.977 29.2037C181.361 28.9626 180.81 28.6104 180.358 28.1695C179.906 27.7287 179.563 27.2091 179.351 26.644C179.14 26.079 179.064 25.481 179.129 24.8886ZM186.665 24.8886C186.665 22.9364 185.673 21.7948 183.934 21.7948C182.187 21.7948 181.205 22.9364 181.205 24.8886C181.205 26.8564 182.187 27.9892 183.934 27.9892C185.673 27.9892 186.665 26.8485 186.665 24.8886Z"
      fill="white" />
    <path
      d="M191.427 20.3897H193.361V21.8204H193.512C193.766 21.3066 194.196 20.8758 194.74 20.5882C195.285 20.3006 195.917 20.1704 196.55 20.2159C197.045 20.183 197.542 20.249 198.005 20.4092C198.467 20.5694 198.883 20.8196 199.222 21.1413C199.56 21.463 199.812 21.8479 199.96 22.2676C200.107 22.6872 200.146 23.1308 200.073 23.5655V29.3955H198.064V24.0118C198.064 22.5646 197.353 21.8448 195.867 21.8448C195.531 21.831 195.195 21.8816 194.883 21.9933C194.571 22.1049 194.29 22.275 194.059 22.4917C193.828 22.7085 193.653 22.9669 193.545 23.2491C193.438 23.5314 193.401 23.8309 193.436 24.127V29.3956H191.427V20.3897Z"
      fill="white" />
    <path
      d="M211.426 18.1475V20.4307H213.632V21.9277H211.426V26.5586C211.426 27.502 211.865 27.915 212.865 27.915C213.121 27.9143 213.377 27.9006 213.632 27.874V29.3545C213.271 29.4116 212.905 29.442 212.539 29.4453C210.304 29.4453 209.415 28.75 209.415 27.0137V21.9277H207.798V20.4306H209.415V18.1475H211.426Z"
      fill="white" />
    <path
      d="M216.376 16.874H218.367V21.8369H218.526C218.794 21.3183 219.235 20.8851 219.79 20.5964C220.346 20.3077 220.988 20.1775 221.631 20.2236C222.123 20.1999 222.616 20.2727 223.073 20.4368C223.531 20.6009 223.941 20.8522 224.276 21.1729C224.611 21.4936 224.862 21.8757 225.011 22.2919C225.159 22.7082 225.202 23.1484 225.137 23.5811V29.3955H223.126V24.0195C223.126 22.581 222.368 21.8525 220.949 21.8525C220.603 21.8275 220.256 21.8695 219.931 21.9756C219.606 22.0817 219.311 22.2493 219.067 22.4668C218.823 22.6843 218.635 22.9463 218.517 23.2346C218.4 23.5229 218.355 23.8304 218.385 24.1357V29.3955H216.376L216.376 16.874Z"
      fill="white" />
    <path
      d="M236.852 26.964C236.579 27.7871 235.987 28.4991 235.181 28.9754C234.375 29.4517 233.405 29.662 232.441 29.5695C231.77 29.5851 231.103 29.4715 230.487 29.2364C229.871 29.0014 229.32 28.6505 228.873 28.2083C228.425 27.766 228.092 27.2429 227.896 26.6752C227.7 26.1076 227.646 25.509 227.738 24.9211C227.648 24.3313 227.703 23.7314 227.899 23.1621C228.094 22.5927 228.426 22.0672 228.871 21.621C229.316 21.1749 229.864 20.8186 230.479 20.5761C231.093 20.3337 231.759 20.2109 232.432 20.216C235.264 20.216 236.973 21.928 236.973 24.756V25.3762H229.784V25.4758C229.753 25.8062 229.8 26.1389 229.922 26.4524C230.045 26.7659 230.24 27.0533 230.495 27.2962C230.75 27.5391 231.06 27.7322 231.405 27.863C231.749 27.9938 232.121 28.0594 232.496 28.0558C232.976 28.1068 233.463 28.0302 233.895 27.8358C234.326 27.6414 234.682 27.3379 234.918 26.964L236.852 26.964ZM229.784 24.0617H234.927C234.952 23.7594 234.905 23.4558 234.79 23.1704C234.675 22.8849 234.494 22.624 234.258 22.4043C234.022 22.1846 233.736 22.0109 233.42 21.8946C233.104 21.7782 232.763 21.7217 232.421 21.7287C232.073 21.7248 231.728 21.7825 231.406 21.8984C231.084 22.0143 230.792 22.186 230.546 22.4034C230.301 22.6209 230.107 22.8796 229.976 23.1644C229.845 23.4492 229.78 23.7543 229.784 24.0617Z"
      fill="white" />
  </g>
  <defs>
    <clipPath id="clip0_406_1545">
      <rect width="270.545" height="80" fill="white" />
    </clipPath>
  </defs>
</svg>