<svg width="40" height="40" viewBox="0 0 40 40" fill="none" xmlns="http://www.w3.org/2000/svg">
  <g clip-path="url(#clip0_instagram)">
    <!-- Teal circular background -->
    <circle cx="20" cy="20" r="20" fill="#008080"/>
    <!-- Black Instagram icon (larger) -->
    <path
      d="M20 12.8c2.4 0 2.688.009 3.636.052.877.04 1.355.187 1.673.31.42.163.72.358 1.035.672.315.315.51.615.672 1.035.123.318.27.796.31 1.673.043.948.052 1.236.052 3.636s-.009 2.688-.052 3.636c-.04.877-.187 1.355-.31 1.673-.163.42-.358.72-.672 1.035-.315.315-.615.51-1.035.672-.318.123-.796.27-1.673.31-.948.043-1.236.052-3.636.052s-2.688-.009-3.636-.052c-.877-.04-1.355-.187-1.673-.31-.42-.163-.72-.358-1.035-.672-.315-.315-.51-.615-.672-1.035-.123-.318-.27-.796-.31-1.673-.043-.948-.052-1.236-.052-3.636s.009-2.688.052-3.636c.04-.877.187-1.355.31-1.673.163-.42.358-.72.672-1.035.315-.315.615-.51 1.035-.672.318-.123.796-.27 1.673-.31.948-.043 1.236-.052 3.636-.052zm0-1.6c-2.44 0-2.747.01-3.705.054-.958.044-1.613.196-2.185.419-.591.229-1.093.536-1.593 1.036s-.807 1.002-1.036 1.593c-.223.572-.375 1.227-.419 2.185-.044.958-.054 1.265-.054 3.705s.01 2.747.054 3.705c.044.958.196 1.613.419 2.185.229.591.536 1.093 1.036 1.593s1.002.807 1.593 1.036c.572.223 1.227.375 2.185.419.958.044 1.265.054 3.705.054s2.747-.01 3.705-.054c.958-.044 1.613-.196 2.185-.419.591-.229 1.093-.536 1.593-1.036s.807-1.002 1.036-1.593c.223-.572.375-1.227.419-2.185.044-.958.054-1.265.054-3.705s-.01-2.747-.054-3.705c-.044-.958-.196-1.613-.419-2.185-.229-.591-.536-1.093-1.036-1.593s-1.002-.807-1.593-1.036c-.572-.223-1.227-.375-2.185-.419-.958-.044-1.265-.054-3.705-.054z"
      fill="black" />
    <path
      d="M20 15.35a4.65 4.65 0 1 0 0 9.3 4.65 4.65 0 0 0 0-9.3zm0 7.67a3.02 3.02 0 1 1 0-6.04 3.02 3.02 0 0 1 0 6.04z"
      fill="black" />
    <circle cx="24.85" cy="15.15" r="1.09" fill="black" />
  </g>
  <defs>
    <clipPath id="clip0_instagram">
      <rect width="40" height="40" fill="white"/>
    </clipPath>
  </defs>
</svg> 