<svg width="268" height="80" viewBox="0 0 268 80" fill="none" xmlns="http://www.w3.org/2000/svg">
  <g clip-path="url(#clip0_406_1580)">
    <path
      d="M257.915 80H9.92537C4.46947 80 0.00561523 75.5001 0.00561523 70.0002V10.0013C0.00561523 4.50134 4.46947 0.00146484 9.92537 0.00146484H257.915C263.371 0.00146484 267.835 4.50134 267.835 10.0013V70.0002C267.835 75.5001 263.371 80 257.915 80Z"
      fill="#100F0D" />
    <path
      d="M257.915 0.00146484H9.92537C4.46947 0.00146484 0.00561523 4.50134 0.00561523 10.0013V70.0002C0.00561523 75.5001 4.46947 80 9.92537 80H257.915C263.371 80 267.835 75.5001 267.835 70.0002V10.0013C267.835 4.50134 263.371 0.00146484 257.915 0.00146484ZM257.915 1.60062C262.51 1.60062 266.248 5.3694 266.248 10.0013V70.0002C266.248 74.632 262.51 78.4008 257.915 78.4008H9.92537C5.33057 78.4008 1.59361 74.632 1.59361 70.0002V10.0013C1.59361 5.3694 5.33057 1.60062 9.92537 1.60062H257.915Z"
      fill="#A2A2A1" />
    <path
      d="M212.159 59.9999H215.861V34.9962H212.159V59.9999ZM245.504 44.0038L241.26 54.8434H241.133L236.729 44.0038H232.741L239.348 59.1539L235.58 67.5817H239.441L249.621 44.0045L245.504 44.0038ZM224.508 57.1597C223.298 57.1597 221.605 56.5479 221.605 55.0363C221.605 53.1066 223.712 52.3668 225.53 52.3668C227.157 52.3668 227.924 52.7199 228.912 53.2027C228.625 55.5191 226.647 57.1597 224.508 57.1597ZM224.956 43.4568C222.276 43.4568 219.5 44.6474 218.352 47.285L221.637 48.6678C222.34 47.285 223.647 46.8351 225.02 46.8351C226.934 46.8351 228.881 47.9921 228.912 50.0514V50.3084C228.242 49.9224 226.805 49.3436 225.052 49.3436C221.508 49.3436 217.903 51.3052 217.903 54.9723C217.903 58.3176 220.808 60.4729 224.062 60.4729C226.55 60.4729 227.924 59.3471 228.783 58.0278H228.912V59.9589H232.487V50.3723C232.487 45.9334 229.198 43.4568 224.956 43.4568ZM202.077 47.0474H196.811V38.4774H202.077C204.845 38.4774 206.416 40.7868 206.416 42.7623C206.416 44.6999 204.844 47.0474 202.077 47.0474ZM201.982 34.9968H193.111V60.0005H196.812V50.528H201.982C206.085 50.528 210.118 47.5343 210.118 42.7632C210.118 37.9931 206.084 34.9968 201.982 34.9968ZM153.611 57.1639C151.054 57.1639 148.913 55.0045 148.913 52.0414C148.913 49.0438 151.054 46.8539 153.611 46.8539C156.136 46.8539 158.118 49.0439 158.118 52.0414C158.118 55.0045 156.136 57.1639 153.611 57.1639ZM157.862 45.4034H157.734C156.903 44.4048 155.304 43.5026 153.292 43.5026C149.072 43.5026 145.205 47.2408 145.205 52.0414C145.205 56.8093 149.072 60.5147 153.292 60.5147C155.304 60.5147 156.903 59.6123 157.734 58.5819H157.862V59.8053C157.862 63.0607 156.136 64.7997 153.355 64.7997C151.087 64.7997 149.68 63.1567 149.105 61.7715L145.877 63.1246C146.803 65.3791 149.264 68.1511 153.356 68.1511C157.703 68.1511 161.379 65.5729 161.379 59.2895V44.0179H157.862L157.862 45.4034ZM163.936 59.9991H167.642V34.9954H163.936V59.9991ZM173.108 51.7509C173.013 48.4642 175.635 46.7891 177.52 46.7891C178.99 46.7891 180.236 47.5305 180.653 48.593L173.108 51.7509ZM184.614 48.9149C183.912 47.015 181.77 43.5026 177.392 43.5026C173.044 43.5026 169.433 46.9501 169.433 52.0087C169.433 56.7774 173.013 60.5148 177.806 60.5148C181.673 60.5148 183.912 58.1313 184.839 56.7453L181.962 54.8118C181.003 56.2297 179.693 57.1641 177.806 57.1641C175.922 57.1641 174.578 56.2939 173.717 54.5862L184.998 49.8823L184.614 48.9149ZM94.7258 46.1126V49.7212H103.292C103.036 51.751 102.365 53.2329 101.342 54.2641C100.095 55.5203 98.145 56.9062 94.7257 56.9062C89.4518 56.9062 85.329 52.6212 85.329 47.3048C85.329 41.9885 89.4518 37.7028 94.7257 37.7028C97.5704 37.7028 99.6475 38.8308 101.182 40.2807L103.708 37.7348C101.565 35.673 98.7213 34.0942 94.7257 34.0942C87.5011 34.0942 81.4285 40.0229 81.4285 47.3048C81.4285 54.586 87.5011 60.5148 94.7257 60.5148C98.6245 60.5148 101.566 59.2258 103.866 56.8095C106.232 54.4251 106.967 51.0743 106.967 48.3674C106.967 47.5306 106.903 46.7573 106.775 46.1126H94.7258ZM116.707 57.1639C114.149 57.1639 111.943 55.0374 111.943 52.0087C111.943 48.9478 114.149 46.8541 116.707 46.8541C119.263 46.8541 121.469 48.9478 121.469 52.0087C121.469 55.0374 119.263 57.1639 116.707 57.1639ZM116.707 43.5026C112.039 43.5026 108.236 47.0789 108.236 52.0087C108.236 56.9062 112.039 60.5148 116.707 60.5148C121.373 60.5148 125.176 56.9062 125.176 52.0087C125.176 47.0789 121.373 43.5026 116.707 43.5026ZM135.183 57.1639C132.627 57.1639 130.421 55.0374 130.421 52.0087C130.421 48.9478 132.627 46.8541 135.183 46.8541C137.741 46.8541 139.945 48.9478 139.945 52.0087C139.945 55.0374 137.741 57.1639 135.183 57.1639ZM135.183 43.5026C130.517 43.5026 126.714 47.0789 126.714 52.0087C126.714 56.9062 130.517 60.5148 135.183 60.5148C139.851 60.5148 143.654 56.9062 143.654 52.0087C143.654 47.0789 139.851 43.5026 135.183 43.5026Z"
      fill="white" />
    <path
      d="M41.1014 38.8489L19.9807 61.448C19.9815 61.4527 19.9831 61.4566 19.9838 61.4614C20.6316 63.9154 22.8551 65.7223 25.4939 65.7223C26.5488 65.7223 27.5392 65.4348 28.3885 64.9301L28.456 64.8903L52.2312 51.0602L41.1014 38.8489Z"
      fill="#EB3131" />
    <path
      d="M62.4706 35.0013L62.4504 34.9873L52.1859 28.9888L40.6216 39.3622L52.2261 51.0589L62.4364 45.12C64.2265 44.1458 65.4417 42.2435 65.4417 40.0497C65.4417 37.8717 64.243 35.9787 62.4706 35.0013Z"
      fill="#F6B60B" />
    <path
      d="M19.9779 18.5552C19.8509 19.0272 19.7842 19.5216 19.7842 20.035V59.9697C19.7842 60.4821 19.8501 60.9782 19.9787 61.4485L41.8285 39.4269L19.9779 18.5552Z"
      fill="#5778C5" />
    <path
      d="M41.2577 40.0026L52.1905 28.9849L28.442 15.1047C27.5788 14.5835 26.5713 14.2827 25.4932 14.2827C22.8544 14.2827 20.6279 16.0929 19.98 18.5498C19.9792 18.5522 19.9792 18.5538 19.9792 18.5559L41.2577 40.0026Z"
      fill="#3BAD49" />
    <path
      d="M94.0311 19.5633H88.2435V21.007H92.5805C92.4626 22.1852 91.9976 23.1102 91.2133 23.782C90.4291 24.454 89.4277 24.7914 88.2436 24.7914C86.9447 24.7914 85.8442 24.3352 84.9423 23.4291C84.0586 22.5041 83.6093 21.3602 83.6093 19.9822C83.6093 18.6042 84.0586 17.4604 84.9423 16.5355C85.8442 15.6293 86.9447 15.1761 88.2436 15.1761C88.9102 15.1761 89.5456 15.2917 90.1283 15.5449C90.7111 15.7979 91.1792 16.1511 91.545 16.6043L92.6455 15.4949C92.1463 14.9229 91.5141 14.4855 90.7296 14.1667C89.9453 13.8479 89.127 13.6949 88.2434 13.6949C86.5106 13.6949 85.0414 14.3011 83.8416 15.5105C82.6419 16.7229 82.0405 18.2167 82.0405 19.9822C82.0405 21.7477 82.6419 23.2447 83.8416 24.4542C85.0413 25.6634 86.5106 26.2698 88.2434 26.2698C90.0631 26.2698 91.5139 25.6822 92.6299 24.4884C93.6125 23.4948 94.1147 22.1511 94.1147 20.4699C94.1147 20.1855 94.0807 19.882 94.0311 19.5633ZM96.2732 13.9634V26.0008H103.245V24.5227H97.8077V20.7041H102.712V19.2603H97.8077V15.4447H103.245V13.9634L96.2732 13.9634ZM113.021 15.4448V13.9634H104.815V15.4448H108.151V26.0008H109.685V15.4448H113.021ZM120.45 13.9634H118.915V26.0008H120.45V13.9634ZM130.578 15.4448V13.9634H122.372V15.4448H125.708V26.0008H127.242V15.4448H130.578ZM146.062 15.5292C144.878 14.301 143.427 13.6948 141.694 13.6948C139.958 13.6948 138.507 14.301 137.323 15.5104C136.139 16.7042 135.556 18.201 135.556 19.9821C135.556 21.7632 136.139 23.2602 137.323 24.4541C138.507 25.6633 139.958 26.2697 141.694 26.2697C143.411 26.2697 144.878 25.6633 146.062 24.4541C147.246 23.2603 147.829 21.7634 147.829 19.9821C147.829 18.2166 147.246 16.7227 146.062 15.5292ZM138.424 16.5354C139.307 15.6292 140.392 15.176 141.694 15.176C142.993 15.176 144.078 15.6292 144.946 16.5354C145.829 17.4259 146.263 18.5883 146.263 19.9821C146.263 21.3791 145.829 22.5382 144.946 23.429C144.078 24.3351 142.993 24.7913 141.694 24.7913C140.392 24.7913 139.307 24.3351 138.424 23.429C137.559 22.5196 137.125 21.379 137.125 19.9821C137.125 18.5883 137.559 17.4447 138.424 16.5354ZM151.474 18.5041L151.409 16.1821H151.474L157.544 26.0007H159.147V13.9633H157.612V21.0069L157.677 23.3289H157.612L151.809 13.9633H149.94V26.0007H151.474V18.5041Z"
      fill="white" stroke="white" stroke-width="0.479988" stroke-miterlimit="10" />
  </g>
  <defs>
    <clipPath id="clip0_406_1580">
      <rect width="267.84" height="80" fill="white" />
    </clipPath>
  </defs>
</svg>